<svg width="80" height="80" viewBox="0 0 80 80" fill="none" xmlns="http://www.w3.org/2000/svg">
<g clip-path="url(#clip0_59_13960)">
<path d="M38.4734 66.6665H7.99859C5.05312 66.6665 2.66547 64.2787 2.66547 61.3334V56H43.5962L38.4734 66.6665Z" fill="#D3DCFB"/>
<path d="M72.0039 23.9999V46.4059V61.3331H7.99859C5.05312 61.3331 2.66547 58.9453 2.66547 55.9998V23.9999L40.0014 10.6665L72.0039 23.9999Z" fill="#EBF5FC"/>
<path d="M12.0837 34.6668H9.25046C8.56015 34.6668 8.00046 34.1071 8.00046 33.4168V30.5835C8.00046 29.8932 8.56015 29.3335 9.25046 29.3335H12.0837C12.7741 29.3335 13.3337 29.8932 13.3337 30.5835V33.4168C13.3337 34.1071 12.7741 34.6668 12.0837 34.6668Z" fill="#3C58A0"/>
<path d="M22.7505 34.6668H19.9172C19.2269 34.6668 18.6672 34.1071 18.6672 33.4168V30.5835C18.6672 29.8932 19.2269 29.3335 19.9172 29.3335H22.7505C23.4408 29.3335 24.0005 29.8932 24.0005 30.5835V33.4168C24.0005 34.1071 23.4408 34.6668 22.7505 34.6668Z" fill="#3C58A0"/>
<path d="M33.417 34.6668H30.5837C29.8934 34.6668 29.3337 34.1071 29.3337 33.4168V30.5835C29.3337 29.8932 29.8934 29.3335 30.5837 29.3335H33.417C34.1073 29.3335 34.667 29.8932 34.667 30.5835V33.4168C34.667 34.1071 34.1075 34.6668 33.417 34.6668Z" fill="#3C58A0"/>
<path d="M44.0837 34.6668H41.2505C40.5601 34.6668 40.0005 34.1071 40.0005 33.4168V30.5835C40.0005 29.8932 40.5601 29.3335 41.2505 29.3335H44.0837C44.7741 29.3335 45.3337 29.8932 45.3337 30.5835V33.4168C45.3337 34.1071 44.7741 34.6668 44.0837 34.6668Z" fill="#3C58A0"/>
<path d="M54.7486 34.6668H51.9153C51.225 34.6668 50.6653 34.1071 50.6653 33.4168V30.5835C50.6653 29.8932 51.225 29.3335 51.9153 29.3335H54.7486C55.4389 29.3335 55.9986 29.8932 55.9986 30.5835V33.4168C55.9986 34.1071 55.439 34.6668 54.7486 34.6668Z" fill="#3C58A0"/>
<path d="M65.4153 34.6668H62.582C61.8917 34.6668 61.332 34.1071 61.332 33.4168V30.5835C61.332 29.8932 61.8917 29.3335 62.582 29.3335H65.4153C66.1056 29.3335 66.6653 29.8932 66.6653 30.5835V33.4168C66.6653 34.1071 66.1056 34.6668 65.4153 34.6668Z" fill="#3C58A0"/>
<path d="M12.0837 45.3333H9.25046C8.56015 45.3333 8.00046 44.7736 8.00046 44.0833V41.25C8.00046 40.5597 8.56015 40 9.25046 40H12.0837C12.7741 40 13.3337 40.5597 13.3337 41.25V44.0833C13.3337 44.7738 12.7741 45.3333 12.0837 45.3333Z" fill="#3C58A0"/>
<path d="M22.7505 45.3333H19.9172C19.2269 45.3333 18.6672 44.7736 18.6672 44.0833V41.25C18.6672 40.5597 19.2269 40 19.9172 40H22.7505C23.4408 40 24.0005 40.5597 24.0005 41.25V44.0833C24.0005 44.7738 23.4408 45.3333 22.7505 45.3333Z" fill="#3C58A0"/>
<path d="M33.417 45.3333H30.5837C29.8934 45.3333 29.3337 44.7736 29.3337 44.0833V41.25C29.3337 40.5597 29.8934 40 30.5837 40H33.417C34.1073 40 34.667 40.5597 34.667 41.25V44.0833C34.667 44.7738 34.1075 45.3333 33.417 45.3333Z" fill="#3C58A0"/>
<path d="M45.3337 45.3333V41.3333C45.3337 40.5969 44.7369 40 44.0005 40H41.3337C40.5973 40 40.0005 40.5969 40.0005 41.3333V44C40.0005 44.7364 40.5975 45.3333 41.3337 45.3333H45.3337Z" fill="#3C58A0"/>
<path d="M12.0837 56.0003H9.25046C8.56015 56.0003 8.00046 55.4406 8.00046 54.7503V51.917C8.00046 51.2267 8.56015 50.667 9.25046 50.667H12.0837C12.7741 50.667 13.3337 51.2267 13.3337 51.917V54.7503C13.3337 55.4406 12.7741 56.0003 12.0837 56.0003Z" fill="#3C58A0"/>
<path d="M22.7505 56.0003H19.9172C19.2269 56.0003 18.6672 55.4406 18.6672 54.7503V51.917C18.6672 51.2267 19.2269 50.667 19.9172 50.667H22.7505C23.4408 50.667 24.0005 51.2267 24.0005 51.917V54.7503C24.0005 55.4406 23.4408 56.0003 22.7505 56.0003Z" fill="#3C58A0"/>
<path d="M33.417 56.0003H30.5837C29.8934 56.0003 29.3337 55.4406 29.3337 54.7503V51.917C29.3337 51.2267 29.8934 50.667 30.5837 50.667H33.417C34.1073 50.667 34.667 51.2267 34.667 51.917V54.7503C34.667 55.4406 34.1075 56.0003 33.417 56.0003Z" fill="#3C58A0"/>
<path d="M65.3776 29.3335H62.6198C62.453 29.3335 62.2941 29.3663 62.1476 29.424C62.625 29.6124 62.9631 30.0768 62.9631 30.6212V33.379C62.9631 33.9233 62.6248 34.3877 62.1476 34.5762C62.2941 34.634 62.453 34.6668 62.6198 34.6668H65.3776C66.0889 34.6668 66.6655 34.0902 66.6655 33.3791V30.6213C66.6653 29.9101 66.0887 29.3335 65.3776 29.3335Z" fill="#2A428C"/>
<path d="M54.7109 29.3335H51.9531C51.7862 29.3335 51.6273 29.3663 51.4809 29.424C51.9583 29.6124 52.2964 30.0768 52.2964 30.6212V33.379C52.2964 33.9233 51.9581 34.3877 51.4809 34.5762C51.6273 34.634 51.7862 34.6668 51.9531 34.6668H54.7109C55.4222 34.6668 55.9986 34.0902 55.9986 33.3791V30.6213C55.9986 29.9101 55.4222 29.3335 54.7109 29.3335Z" fill="#2A428C"/>
<path d="M44.0461 29.3335H41.2883C41.1214 29.3335 40.9625 29.3663 40.8161 29.424C41.2934 29.6124 41.6317 30.0768 41.6317 30.6212V33.379C41.6317 33.9233 41.2934 34.3877 40.8161 34.5762C40.9625 34.634 41.1214 34.6668 41.2883 34.6668H44.0461C44.7574 34.6668 45.3339 34.0902 45.3339 33.3791V30.6213C45.3338 29.9101 44.7572 29.3335 44.0461 29.3335Z" fill="#2A428C"/>
<path d="M33.3794 29.3335H30.6215C30.4547 29.3335 30.2958 29.3663 30.1494 29.424C30.6267 29.6124 30.965 30.0768 30.965 30.6212V33.379C30.965 33.9233 30.6267 34.3877 30.1494 34.5762C30.2958 34.634 30.4547 34.6668 30.6215 34.6668H33.3794C34.0906 34.6668 34.6672 34.0902 34.6672 33.3791V30.6213C34.667 29.9101 34.0906 29.3335 33.3794 29.3335Z" fill="#2A428C"/>
<path d="M22.7127 29.3335H19.9549C19.788 29.3335 19.6291 29.3663 19.4827 29.424C19.96 29.6124 20.2981 30.0768 20.2981 30.6212V33.379C20.2981 33.9233 19.9599 34.3877 19.4827 34.5762C19.6291 34.634 19.788 34.6668 19.9549 34.6668H22.7127C23.4239 34.6668 24.0005 34.0902 24.0005 33.3791V30.6213C24.0005 29.9101 23.4239 29.3335 22.7127 29.3335Z" fill="#2A428C"/>
<path d="M12.0461 29.3335H9.28829C9.12141 29.3335 8.96251 29.3663 8.8161 29.424C9.29344 29.6124 9.63173 30.0768 9.63173 30.6212V33.379C9.63173 33.9233 9.29344 34.3877 8.8161 34.5762C8.96251 34.634 9.12141 34.6668 9.28829 34.6668H12.0461C12.7573 34.6668 13.3339 34.0902 13.3339 33.3791V30.6213C13.3338 29.9101 12.7572 29.3335 12.0461 29.3335Z" fill="#2A428C"/>
<path d="M12.0461 40H9.28829C9.12141 40 8.96251 40.0328 8.8161 40.0905C9.29344 40.2789 9.63173 40.7433 9.63173 41.2877V44.0456C9.63173 44.59 9.29344 45.0544 8.8161 45.2428C8.96251 45.3006 9.12141 45.3334 9.28829 45.3334H12.0461C12.7573 45.3334 13.3339 44.7569 13.3339 44.0458V41.2878C13.3338 40.5766 12.7572 40 12.0461 40Z" fill="#2A428C"/>
<path d="M12.0461 50.6665H9.28829C9.12141 50.6665 8.96251 50.6993 8.8161 50.757C9.29344 50.9454 9.63173 51.4098 9.63173 51.9542V54.7121C9.63173 55.2565 9.29344 55.7209 8.8161 55.9093C8.96251 55.9671 9.12141 55.9999 9.28829 55.9999H12.0461C12.7573 55.9999 13.3339 55.4234 13.3339 54.7123V51.9543C13.3338 51.2429 12.7572 50.6665 12.0461 50.6665Z" fill="#2A428C"/>
<path d="M22.7127 40H19.9549C19.788 40 19.6291 40.0328 19.4827 40.0905C19.96 40.2789 20.2981 40.7433 20.2981 41.2877V44.0456C20.2981 44.59 19.9599 45.0544 19.4827 45.2428C19.6291 45.3006 19.788 45.3334 19.9549 45.3334H22.7127C23.4239 45.3334 24.0005 44.7569 24.0005 44.0458V41.2878C24.0005 40.5766 23.4239 40 22.7127 40Z" fill="#2A428C"/>
<path d="M22.7127 50.6665H19.9549C19.788 50.6665 19.6291 50.6993 19.4827 50.757C19.96 50.9454 20.2981 51.4098 20.2981 51.9542V54.7121C20.2981 55.2565 19.9599 55.7209 19.4827 55.9093C19.6291 55.9671 19.788 55.9999 19.9549 55.9999H22.7127C23.4239 55.9999 24.0005 55.4234 24.0005 54.7123V51.9543C24.0005 51.2429 23.4239 50.6665 22.7127 50.6665Z" fill="#2A428C"/>
<path d="M33.3794 40H30.6215C30.4547 40 30.2958 40.0328 30.1494 40.0905C30.6267 40.2789 30.965 40.7433 30.965 41.2877V44.0456C30.965 44.59 30.6267 45.0544 30.1494 45.2428C30.2958 45.3006 30.4547 45.3334 30.6215 45.3334H33.3794C34.0906 45.3334 34.6672 44.7569 34.6672 44.0458V41.2878C34.667 40.5766 34.0906 40 33.3794 40Z" fill="#2A428C"/>
<path d="M45.3337 45.3333V41.2877C45.3337 40.5764 44.7572 40 44.0459 40H41.2881C41.1212 40 40.9623 40.0328 40.8159 40.0905C41.2933 40.2789 41.6315 40.7433 41.6315 41.2877V44.0456C41.6315 44.59 41.2933 45.0544 40.8159 45.2428C40.9623 45.3006 41.1212 45.3334 41.2881 45.3334H45.3337V45.3333Z" fill="#2A428C"/>
<path d="M33.3794 50.6665H30.6215C30.4547 50.6665 30.2958 50.6993 30.1494 50.757C30.6267 50.9454 30.965 51.4098 30.965 51.9542V54.7121C30.965 55.2565 30.6267 55.7209 30.1494 55.9093C30.2958 55.9671 30.4547 55.9999 30.6215 55.9999H33.3794C34.0906 55.9999 34.6672 55.4234 34.6672 54.7123V51.9543C34.667 51.2429 34.0906 50.6665 33.3794 50.6665Z" fill="#2A428C"/>
<path d="M68.2991 22.4565V46.4061V61.3334H72.0039V46.4061V24.0001L68.2991 22.4565Z" fill="#D3DCFB"/>
<path d="M72.0039 24.0001V10.6666C72.0039 7.72115 69.6161 5.3335 66.6708 5.3335H7.99859C5.05312 5.3335 2.66547 7.72115 2.66547 10.6666V24.0001H72.0039Z" fill="#FF4155"/>
<path d="M19.4702 11.8738H15.9988C15.3319 11.8738 14.7916 11.3334 14.7916 10.6667C14.7916 9.99994 15.332 9.45947 15.9988 9.45947H19.4702C20.137 9.45947 20.6773 9.99994 20.6773 10.6667C20.6773 11.3334 20.1369 11.8738 19.4702 11.8738Z" fill="#E80054"/>
<path d="M27.9986 11.8738H24.5272C23.8603 11.8738 23.32 11.3334 23.32 10.6667C23.32 9.99994 23.8605 9.45947 24.5272 9.45947H27.9986C28.6655 9.45947 29.2058 9.99994 29.2058 10.6667C29.2058 11.3334 28.6655 11.8738 27.9986 11.8738Z" fill="#E80054"/>
<path d="M50.1386 11.8738H46.667C46.0002 11.8738 45.4598 11.3334 45.4598 10.6667C45.4598 9.99994 46.0003 9.45947 46.667 9.45947H50.1386C50.8055 9.45947 51.3458 9.99994 51.3458 10.6667C51.3458 11.3334 50.8055 11.8738 50.1386 11.8738Z" fill="#E80054"/>
<path d="M58.6672 11.8738H55.1957C54.5288 11.8738 53.9885 11.3334 53.9885 10.6667C53.9885 9.99994 54.5289 9.45947 55.1957 9.45947H58.6672C59.3341 9.45947 59.8744 9.99994 59.8744 10.6667C59.8744 11.3334 59.3339 11.8738 58.6672 11.8738Z" fill="#E80054"/>
<path d="M25.332 10C25.332 11.8409 23.8397 13.3333 21.9987 13.3333C20.1578 13.3333 18.6655 11.8409 18.6655 10V3.33328C18.6653 1.49234 20.1577 0 21.9986 0C23.8395 0 25.3319 1.49234 25.3319 3.33328V10H25.332Z" fill="#EBF5FC"/>
<path d="M56.0005 10C56.0005 11.8409 54.5081 13.3333 52.6672 13.3333C50.8262 13.3333 49.3337 11.8409 49.3337 10V3.33328C49.3337 1.49234 50.8261 0 52.667 0C54.508 0 56.0003 1.49234 56.0003 3.33328V10H56.0005Z" fill="#EBF5FC"/>
<path d="M52.667 0C51.9827 0 51.347 0.206875 50.8177 0.560625C51.7122 1.15844 52.3017 2.17672 52.3017 3.33344V10C52.3017 11.1566 51.7122 12.175 50.8177 12.7728C51.3469 13.1264 51.9827 13.3334 52.667 13.3334C54.508 13.3334 56.0003 11.8411 56.0003 10.0002V3.33328C56.0005 1.49234 54.5081 0 52.667 0V0Z" fill="#D3DCFB"/>
<path d="M21.9986 0C21.3142 0 20.6786 0.206875 20.1492 0.560625C21.0438 1.15844 21.6333 2.17672 21.6333 3.33344V10C21.6333 11.1566 21.0438 12.175 20.1492 12.7728C20.6784 13.1264 21.3142 13.3334 21.9986 13.3334C23.8395 13.3334 25.3319 11.8411 25.3319 10.0002V3.33328C25.332 1.49234 23.8397 0 21.9986 0V0Z" fill="#D3DCFB"/>
<path d="M66.6708 5.3335H62.9672C65.9127 5.3335 68.3003 7.72115 68.3003 10.6666V24.0002H72.0038V10.6668C72.0039 7.72131 69.6161 5.3335 66.6708 5.3335Z" fill="#E80054"/>
<path d="M2.66531 17.4595H72.0039V19.874H2.66531V17.4595Z" fill="#E80054"/>
<path d="M57.3347 80C68.3804 80 77.3347 71.0457 77.3347 60C77.3347 48.9543 68.3804 40 57.3347 40C46.289 40 37.3347 48.9543 37.3347 60C37.3347 71.0457 46.289 80 57.3347 80Z" fill="#4FABF7"/>
<path d="M57.3347 74.6669C65.4349 74.6669 72.0014 68.1004 72.0014 60.0002C72.0014 51.9 65.4349 45.3335 57.3347 45.3335C49.2345 45.3335 42.668 51.9 42.668 60.0002C42.668 68.1004 49.2345 74.6669 57.3347 74.6669Z" fill="#EBF5FC"/>
<path d="M57.3347 58.5406C56.6678 58.5406 56.1275 58.0001 56.1275 57.3334V50.6667C56.1275 49.9999 56.668 49.4595 57.3347 49.4595C58.0016 49.4595 58.5419 49.9999 58.5419 50.6667V57.3334C58.5419 58.0001 58.0014 58.5406 57.3347 58.5406Z" fill="#3C58A0"/>
<path d="M64.0014 61.2073H60.0013C59.3344 61.2073 58.7941 60.6669 58.7941 60.0002C58.7941 59.3334 59.3345 58.793 60.0013 58.793H64.0014C64.6683 58.793 65.2086 59.3334 65.2086 60.0002C65.2086 60.6669 64.6681 61.2073 64.0014 61.2073Z" fill="#3C58A0"/>
<path d="M57.3347 40C56.7105 40 56.0933 40.0302 55.4836 40.0861C65.6612 41.0203 73.6323 49.5786 73.6323 60C73.6323 70.4214 65.6611 78.9797 55.4834 79.9139C56.0931 79.9698 56.7103 80 57.3345 80C68.3802 80 77.3345 71.0456 77.3345 60C77.3345 48.9544 68.3803 40 57.3347 40Z" fill="#1886EA"/>
<path d="M57.3347 45.3335C56.7081 45.3335 56.0908 45.373 55.4848 45.4493C62.7117 46.3588 68.3017 52.5266 68.3017 60.0002C68.3017 67.4738 62.7117 73.6416 55.4848 74.5512C56.0908 74.6274 56.7081 74.6669 57.3347 74.6669C65.4348 74.6669 72.0014 68.1004 72.0014 60.0002C72.0014 51.9001 65.4348 45.3335 57.3347 45.3335Z" fill="#D3DCFB"/>
<path d="M57.3347 62.6669C58.8075 62.6669 60.0014 61.473 60.0014 60.0002C60.0014 58.5274 58.8075 57.3335 57.3347 57.3335C55.8619 57.3335 54.668 58.5274 54.668 60.0002C54.668 61.473 55.8619 62.6669 57.3347 62.6669Z" fill="#FFDD40"/>
</g>
<defs>
<clipPath id="clip0_59_13960">
<rect width="80" height="80" fill="white"/>
</clipPath>
</defs>
</svg>
