<svg width="28" height="28" viewBox="0 0 28 28" fill="none" xmlns="http://www.w3.org/2000/svg">
<mask id="mask0_319_8857" style="mask-type:alpha" maskUnits="userSpaceOnUse" x="0" y="0" width="28" height="28">
<rect width="28" height="28" fill="white"/>
</mask>
<g mask="url(#mask0_319_8857)">
<path d="M3 13.15C2.53056 13.15 2.15 13.5306 2.15 14C2.15 14.4694 2.53056 14.85 3 14.85V13.15ZM26.601 14.601C26.933 14.2691 26.933 13.7309 26.601 13.399L21.1917 7.98959C20.8597 7.65765 20.3215 7.65765 19.9896 7.98959C19.6576 8.32154 19.6576 8.85973 19.9896 9.19167L24.7979 14L19.9896 18.8083C19.6576 19.1403 19.6576 19.6785 19.9896 20.0104C20.3215 20.3424 20.8597 20.3424 21.1917 20.0104L26.601 14.601ZM3 14.85H26V13.15H3V14.85Z" fill="white"/>
</g>
</svg>
